<svg width="14" height="14" viewBox="0 0 14 14" fill="none" xmlns="http://www.w3.org/2000/svg">
<path d="M12.7696 2.07794H11.5391V1.66779C11.5391 0.989306 10.9871 0.437317 10.3086 0.437317H1.23047C0.551989 0.437317 0 0.989306 0 1.66779V8.2303C0 8.90878 0.551989 9.46077 1.23047 9.46077H2.46094V11.5116C2.46094 11.8775 2.90451 12.0582 3.16111 11.8016L3.8613 11.1014H8.4981L10.8389 13.4422C11.0956 13.699 11.5391 13.5188 11.5391 13.1522V11.1014H12.7695C13.448 11.1014 14 10.5494 14 9.87093V3.30842C14 2.62993 13.448 2.07794 12.7696 2.07794ZM3.28126 10.5214V9.05061C3.28126 8.8241 3.09762 8.64046 2.8711 8.64046H1.23047C1.00431 8.64046 0.820314 8.45646 0.820314 8.2303V1.66779C0.820314 1.44163 1.00431 1.25763 1.23047 1.25763H10.3086C10.5348 1.25763 10.7188 1.44163 10.7188 1.66779V8.2303C10.7188 8.45646 10.5348 8.64046 10.3086 8.64046H5.33204C5.22324 8.64046 5.11895 8.68369 5.04203 8.7606L3.28126 10.5214ZM13.1797 9.87093C13.1797 10.0971 12.9957 10.2811 12.7696 10.2811H11.1289C10.9024 10.2811 10.7188 10.4647 10.7188 10.6912V12.162L8.95799 10.4012C8.88108 10.3243 8.77676 10.2811 8.66799 10.2811H4.68161L5.50193 9.46077H10.3086C10.9871 9.46077 11.5391 8.90878 11.5391 8.2303V2.89826H12.7696C12.9957 2.89826 13.1797 3.08226 13.1797 3.30842V9.87093Z" fill="#2D2D2D"/>
<path d="M7.8477 2.89827H2.05081C1.8243 2.89827 1.64066 3.08191 1.64066 3.30843C1.64066 3.53494 1.8243 3.71858 2.05081 3.71858H7.8477C8.07421 3.71858 8.25786 3.53494 8.25786 3.30843C8.25786 3.08191 8.07421 2.89827 7.8477 2.89827Z" fill="#2D2D2D"/>
<path d="M9.48833 4.53889H2.05081C1.8243 4.53889 1.64066 4.72254 1.64066 4.94905C1.64066 5.17557 1.8243 5.35921 2.05081 5.35921H9.48833C9.71484 5.35921 9.89848 5.17557 9.89848 4.94905C9.89848 4.72254 9.71484 4.53889 9.48833 4.53889Z" fill="#2D2D2D"/>
<path d="M6.20707 6.17952H2.05081C1.8243 6.17952 1.64066 6.36316 1.64066 6.58968C1.64066 6.81619 1.8243 6.99983 2.05081 6.99983H6.20707C6.43359 6.99983 6.61723 6.81619 6.61723 6.58968C6.61723 6.36316 6.43359 6.17952 6.20707 6.17952Z" fill="#2D2D2D"/>
</svg>
